<?xml version="1.0" encoding="UTF-8" standalone="no"?> <svg xmlns="http://www.w3.org/2000/svg" width="25" height="25" viewBox="0 0 32 32"><title>Teamwork</title><g id="Teamwork"><circle cx="16" cy="4.25" r="2.25"/><path d="M13.757,11A1.689,1.689,0,0,1,12.38,8.326a4.5,4.5,0,0,1,7.24,0A1.689,1.689,0,0,1,18.243,11Z"/><circle cx="26.055" cy="13.25" r="2.25"/><path d="M23.812,20a1.689,1.689,0,0,1-1.377-2.674,4.5,4.5,0,0,1,7.24,0A1.689,1.689,0,0,1,28.3,20Z"/><circle cx="5.945" cy="13.25" r="2.25"/><path d="M3.7,20a1.689,1.689,0,0,1-1.377-2.674,4.5,4.5,0,0,1,7.24,0A1.689,1.689,0,0,1,8.188,20Z"/><circle cx="16" cy="23.25" r="2.25"/><path d="M13.757,30a1.689,1.689,0,0,1-1.377-2.674,4.5,4.5,0,0,1,7.24,0A1.689,1.689,0,0,1,18.243,30Z"/><path d="M11.908,4.662a1,1,0,0,0-1.326-.49A13.106,13.106,0,0,0,6.275,7.363,1,1,0,1,0,7.765,8.7a11.148,11.148,0,0,1,3.653-2.709A1,1,0,0,0,11.908,4.662Z"/><path d="M24.938,22.416a11.113,11.113,0,0,1-3.149,2.946,1,1,0,0,0,1.062,1.7,13.133,13.133,0,0,0,3.711-3.474,1,1,0,0,0-1.624-1.168Z"/><path d="M24.235,8.7a1,1,0,1,0,1.49-1.334,13.106,13.106,0,0,0-4.307-3.191,1,1,0,1,0-.836,1.816A11.148,11.148,0,0,1,24.235,8.7Z"/><path d="M10.211,25.362a11.113,11.113,0,0,1-3.149-2.946,1,1,0,0,0-1.624,1.168,13.133,13.133,0,0,0,3.711,3.474,1,1,0,0,0,1.062-1.7Z"/></g></svg>